<?xml version="1.0" encoding="utf-8" standalone="no"?>
<!DOCTYPE svg PUBLIC "-//W3C//DTD SVG 1.1//EN"
  "http://www.w3.org/Graphics/SVG/1.1/DTD/svg11.dtd">
<svg xmlns:xlink="http://www.w3.org/1999/xlink" width="864pt" height="504pt" viewBox="0 0 864 504" xmlns="http://www.w3.org/2000/svg" version="1.1">
 <metadata>
  <rdf:RDF xmlns:dc="http://purl.org/dc/elements/1.1/" xmlns:cc="http://creativecommons.org/ns#" xmlns:rdf="http://www.w3.org/1999/02/22-rdf-syntax-ns#">
   <cc:Work>
    <dc:type rdf:resource="http://purl.org/dc/dcmitype/StillImage"/>
    <dc:date>2026-05-21T04:09:04.964326</dc:date>
    <dc:format>image/svg+xml</dc:format>
    <dc:creator>
     <cc:Agent>
      <dc:title>Matplotlib v3.10.9, https://matplotlib.org/</dc:title>
     </cc:Agent>
    </dc:creator>
   </cc:Work>
  </rdf:RDF>
 </metadata>
 <defs>
  <style type="text/css">*{stroke-linejoin: round; stroke-linecap: butt}</style>
 </defs>
 <g id="figure_1">
  <g id="patch_1">
   <path d="M 0 504 
L 864 504 
L 864 0 
L 0 0 
z
" style="fill: #ffffff"/>
  </g>
  <g id="axes_1">
   <g id="patch_2">
    <path d="M 38.27 462.04 
L 853.2 462.04 
L 853.2 26.88 
L 38.27 26.88 
z
" style="fill: #ffffff"/>
   </g>
   <g id="matplotlib.axis_1">
    <g id="xtick_1">
     <g id="line2d_1">
      <path d="M 75.312273 462.04 
L 75.312273 26.88 
" clip-path="url(#p9db5fbd0d0)" style="fill: none; stroke-dasharray: 2.96,1.28; stroke-dashoffset: 0; stroke: #b0b0b0; stroke-opacity: 0.5; stroke-width: 0.8"/>
     </g>
     <g id="line2d_2">
      <defs>
       <path id="md9536bf90d" d="M 0 0 
L 0 3.5 
" style="stroke: #000000; stroke-width: 0.8"/>
      </defs>
      <g>
       <use xlink:href="#md9536bf90d" x="75.312273" y="462.04" style="stroke: #000000; stroke-width: 0.8"/>
      </g>
     </g>
     <g id="text_1">
      <!-- 1 -->
      <g transform="translate(72.131023 476.638438) scale(0.1 -0.1)">
       <defs>
        <path id="DejaVuSans-31" d="M 794 531 
L 1825 531 
L 1825 4091 
L 703 3866 
L 703 4441 
L 1819 4666 
L 2450 4666 
L 2450 531 
L 3481 531 
L 3481 0 
L 794 0 
L 794 531 
z
" transform="scale(0.015625)"/>
       </defs>
       <use xlink:href="#DejaVuSans-31"/>
      </g>
     </g>
    </g>
    <g id="xtick_2">
     <g id="line2d_3">
      <path d="M 181.147338 462.04 
L 181.147338 26.88 
" clip-path="url(#p9db5fbd0d0)" style="fill: none; stroke-dasharray: 2.96,1.28; stroke-dashoffset: 0; stroke: #b0b0b0; stroke-opacity: 0.5; stroke-width: 0.8"/>
     </g>
     <g id="line2d_4">
      <g>
       <use xlink:href="#md9536bf90d" x="181.147338" y="462.04" style="stroke: #000000; stroke-width: 0.8"/>
      </g>
     </g>
     <g id="text_2">
      <!-- 2 -->
      <g transform="translate(177.966088 476.638438) scale(0.1 -0.1)">
       <defs>
        <path id="DejaVuSans-32" d="M 1228 531 
L 3431 531 
L 3431 0 
L 469 0 
L 469 531 
Q 828 903 1448 1529 
Q 2069 2156 2228 2338 
Q 2531 2678 2651 2914 
Q 2772 3150 2772 3378 
Q 2772 3750 2511 3984 
Q 2250 4219 1831 4219 
Q 1534 4219 1204 4116 
Q 875 4013 500 3803 
L 500 4441 
Q 881 4594 1212 4672 
Q 1544 4750 1819 4750 
Q 2544 4750 2975 4387 
Q 3406 4025 3406 3419 
Q 3406 3131 3298 2873 
Q 3191 2616 2906 2266 
Q 2828 2175 2409 1742 
Q 1991 1309 1228 531 
z
" transform="scale(0.015625)"/>
       </defs>
       <use xlink:href="#DejaVuSans-32"/>
      </g>
     </g>
    </g>
    <g id="xtick_3">
     <g id="line2d_5">
      <path d="M 286.982403 462.04 
L 286.982403 26.88 
" clip-path="url(#p9db5fbd0d0)" style="fill: none; stroke-dasharray: 2.96,1.28; stroke-dashoffset: 0; stroke: #b0b0b0; stroke-opacity: 0.5; stroke-width: 0.8"/>
     </g>
     <g id="line2d_6">
      <g>
       <use xlink:href="#md9536bf90d" x="286.982403" y="462.04" style="stroke: #000000; stroke-width: 0.8"/>
      </g>
     </g>
     <g id="text_3">
      <!-- 3 -->
      <g transform="translate(283.801153 476.638438) scale(0.1 -0.1)">
       <defs>
        <path id="DejaVuSans-33" d="M 2597 2516 
Q 3050 2419 3304 2112 
Q 3559 1806 3559 1356 
Q 3559 666 3084 287 
Q 2609 -91 1734 -91 
Q 1441 -91 1130 -33 
Q 819 25 488 141 
L 488 750 
Q 750 597 1062 519 
Q 1375 441 1716 441 
Q 2309 441 2620 675 
Q 2931 909 2931 1356 
Q 2931 1769 2642 2001 
Q 2353 2234 1838 2234 
L 1294 2234 
L 1294 2753 
L 1863 2753 
Q 2328 2753 2575 2939 
Q 2822 3125 2822 3475 
Q 2822 3834 2567 4026 
Q 2313 4219 1838 4219 
Q 1578 4219 1281 4162 
Q 984 4106 628 3988 
L 628 4550 
Q 988 4650 1302 4700 
Q 1616 4750 1894 4750 
Q 2613 4750 3031 4423 
Q 3450 4097 3450 3541 
Q 3450 3153 3228 2886 
Q 3006 2619 2597 2516 
z
" transform="scale(0.015625)"/>
       </defs>
       <use xlink:href="#DejaVuSans-33"/>
      </g>
     </g>
    </g>
    <g id="xtick_4">
     <g id="line2d_7">
      <path d="M 392.817468 462.04 
L 392.817468 26.88 
" clip-path="url(#p9db5fbd0d0)" style="fill: none; stroke-dasharray: 2.96,1.28; stroke-dashoffset: 0; stroke: #b0b0b0; stroke-opacity: 0.5; stroke-width: 0.8"/>
     </g>
     <g id="line2d_8">
      <g>
       <use xlink:href="#md9536bf90d" x="392.817468" y="462.04" style="stroke: #000000; stroke-width: 0.8"/>
      </g>
     </g>
     <g id="text_4">
      <!-- 4 -->
      <g transform="translate(389.636218 476.638438) scale(0.1 -0.1)">
       <defs>
        <path id="DejaVuSans-34" d="M 2419 4116 
L 825 1625 
L 2419 1625 
L 2419 4116 
z
M 2253 4666 
L 3047 4666 
L 3047 1625 
L 3713 1625 
L 3713 1100 
L 3047 1100 
L 3047 0 
L 2419 0 
L 2419 1100 
L 313 1100 
L 313 1709 
L 2253 4666 
z
" transform="scale(0.015625)"/>
       </defs>
       <use xlink:href="#DejaVuSans-34"/>
      </g>
     </g>
    </g>
    <g id="xtick_5">
     <g id="line2d_9">
      <path d="M 498.652532 462.04 
L 498.652532 26.88 
" clip-path="url(#p9db5fbd0d0)" style="fill: none; stroke-dasharray: 2.96,1.28; stroke-dashoffset: 0; stroke: #b0b0b0; stroke-opacity: 0.5; stroke-width: 0.8"/>
     </g>
     <g id="line2d_10">
      <g>
       <use xlink:href="#md9536bf90d" x="498.652532" y="462.04" style="stroke: #000000; stroke-width: 0.8"/>
      </g>
     </g>
     <g id="text_5">
      <!-- 5 -->
      <g transform="translate(495.471282 476.638438) scale(0.1 -0.1)">
       <defs>
        <path id="DejaVuSans-35" d="M 691 4666 
L 3169 4666 
L 3169 4134 
L 1269 4134 
L 1269 2991 
Q 1406 3038 1543 3061 
Q 1681 3084 1819 3084 
Q 2600 3084 3056 2656 
Q 3513 2228 3513 1497 
Q 3513 744 3044 326 
Q 2575 -91 1722 -91 
Q 1428 -91 1123 -41 
Q 819 9 494 109 
L 494 744 
Q 775 591 1075 516 
Q 1375 441 1709 441 
Q 2250 441 2565 725 
Q 2881 1009 2881 1497 
Q 2881 1984 2565 2268 
Q 2250 2553 1709 2553 
Q 1456 2553 1204 2497 
Q 953 2441 691 2322 
L 691 4666 
z
" transform="scale(0.015625)"/>
       </defs>
       <use xlink:href="#DejaVuSans-35"/>
      </g>
     </g>
    </g>
    <g id="xtick_6">
     <g id="line2d_11">
      <path d="M 604.487597 462.04 
L 604.487597 26.88 
" clip-path="url(#p9db5fbd0d0)" style="fill: none; stroke-dasharray: 2.96,1.28; stroke-dashoffset: 0; stroke: #b0b0b0; stroke-opacity: 0.5; stroke-width: 0.8"/>
     </g>
     <g id="line2d_12">
      <g>
       <use xlink:href="#md9536bf90d" x="604.487597" y="462.04" style="stroke: #000000; stroke-width: 0.8"/>
      </g>
     </g>
     <g id="text_6">
      <!-- 6 -->
      <g transform="translate(601.306347 476.638438) scale(0.1 -0.1)">
       <defs>
        <path id="DejaVuSans-36" d="M 2113 2584 
Q 1688 2584 1439 2293 
Q 1191 2003 1191 1497 
Q 1191 994 1439 701 
Q 1688 409 2113 409 
Q 2538 409 2786 701 
Q 3034 994 3034 1497 
Q 3034 2003 2786 2293 
Q 2538 2584 2113 2584 
z
M 3366 4563 
L 3366 3988 
Q 3128 4100 2886 4159 
Q 2644 4219 2406 4219 
Q 1781 4219 1451 3797 
Q 1122 3375 1075 2522 
Q 1259 2794 1537 2939 
Q 1816 3084 2150 3084 
Q 2853 3084 3261 2657 
Q 3669 2231 3669 1497 
Q 3669 778 3244 343 
Q 2819 -91 2113 -91 
Q 1303 -91 875 529 
Q 447 1150 447 2328 
Q 447 3434 972 4092 
Q 1497 4750 2381 4750 
Q 2619 4750 2861 4703 
Q 3103 4656 3366 4563 
z
" transform="scale(0.015625)"/>
       </defs>
       <use xlink:href="#DejaVuSans-36"/>
      </g>
     </g>
    </g>
    <g id="xtick_7">
     <g id="line2d_13">
      <path d="M 710.322662 462.04 
L 710.322662 26.88 
" clip-path="url(#p9db5fbd0d0)" style="fill: none; stroke-dasharray: 2.96,1.28; stroke-dashoffset: 0; stroke: #b0b0b0; stroke-opacity: 0.5; stroke-width: 0.8"/>
     </g>
     <g id="line2d_14">
      <g>
       <use xlink:href="#md9536bf90d" x="710.322662" y="462.04" style="stroke: #000000; stroke-width: 0.8"/>
      </g>
     </g>
     <g id="text_7">
      <!-- 7 -->
      <g transform="translate(707.141412 476.638438) scale(0.1 -0.1)">
       <defs>
        <path id="DejaVuSans-37" d="M 525 4666 
L 3525 4666 
L 3525 4397 
L 1831 0 
L 1172 0 
L 2766 4134 
L 525 4134 
L 525 4666 
z
" transform="scale(0.015625)"/>
       </defs>
       <use xlink:href="#DejaVuSans-37"/>
      </g>
     </g>
    </g>
    <g id="xtick_8">
     <g id="line2d_15">
      <path d="M 816.157727 462.04 
L 816.157727 26.88 
" clip-path="url(#p9db5fbd0d0)" style="fill: none; stroke-dasharray: 2.96,1.28; stroke-dashoffset: 0; stroke: #b0b0b0; stroke-opacity: 0.5; stroke-width: 0.8"/>
     </g>
     <g id="line2d_16">
      <g>
       <use xlink:href="#md9536bf90d" x="816.157727" y="462.04" style="stroke: #000000; stroke-width: 0.8"/>
      </g>
     </g>
     <g id="text_8">
      <!-- 8 -->
      <g transform="translate(812.976477 476.638438) scale(0.1 -0.1)">
       <defs>
        <path id="DejaVuSans-38" d="M 2034 2216 
Q 1584 2216 1326 1975 
Q 1069 1734 1069 1313 
Q 1069 891 1326 650 
Q 1584 409 2034 409 
Q 2484 409 2743 651 
Q 3003 894 3003 1313 
Q 3003 1734 2745 1975 
Q 2488 2216 2034 2216 
z
M 1403 2484 
Q 997 2584 770 2862 
Q 544 3141 544 3541 
Q 544 4100 942 4425 
Q 1341 4750 2034 4750 
Q 2731 4750 3128 4425 
Q 3525 4100 3525 3541 
Q 3525 3141 3298 2862 
Q 3072 2584 2669 2484 
Q 3125 2378 3379 2068 
Q 3634 1759 3634 1313 
Q 3634 634 3220 271 
Q 2806 -91 2034 -91 
Q 1263 -91 848 271 
Q 434 634 434 1313 
Q 434 1759 690 2068 
Q 947 2378 1403 2484 
z
M 1172 3481 
Q 1172 3119 1398 2916 
Q 1625 2713 2034 2713 
Q 2441 2713 2670 2916 
Q 2900 3119 2900 3481 
Q 2900 3844 2670 4047 
Q 2441 4250 2034 4250 
Q 1625 4250 1398 4047 
Q 1172 3844 1172 3481 
z
" transform="scale(0.015625)"/>
       </defs>
       <use xlink:href="#DejaVuSans-38"/>
      </g>
     </g>
    </g>
    <g id="text_9">
     <!-- Число потоков -->
     <g transform="translate(407.137344 490.316563) scale(0.1 -0.1)">
      <defs>
       <path id="DejaVuSans-427" d="M 3125 0 
L 3125 1913 
L 1822 1913 
Q 1241 1913 894 2277 
Q 547 2641 547 3384 
L 547 4666 
L 1175 4666 
L 1175 3434 
Q 1175 2938 1369 2691 
Q 1563 2444 1950 2444 
L 3125 2444 
L 3125 4666 
L 3759 4666 
L 3759 0 
L 3125 0 
z
" transform="scale(0.015625)"/>
       <path id="DejaVuSans-438" d="M 3578 3500 
L 3578 0 
L 3006 0 
L 3006 2809 
L 1319 0 
L 581 0 
L 581 3500 
L 1153 3500 
L 1153 697 
L 2838 3500 
L 3578 3500 
z
" transform="scale(0.015625)"/>
       <path id="DejaVuSans-441" d="M 3122 3366 
L 3122 2828 
Q 2878 2963 2633 3030 
Q 2388 3097 2138 3097 
Q 1578 3097 1268 2742 
Q 959 2388 959 1747 
Q 959 1106 1268 751 
Q 1578 397 2138 397 
Q 2388 397 2633 464 
Q 2878 531 3122 666 
L 3122 134 
Q 2881 22 2623 -34 
Q 2366 -91 2075 -91 
Q 1284 -91 818 406 
Q 353 903 353 1747 
Q 353 2603 823 3093 
Q 1294 3584 2113 3584 
Q 2378 3584 2631 3529 
Q 2884 3475 3122 3366 
z
" transform="scale(0.015625)"/>
       <path id="DejaVuSans-43b" d="M 238 0 
L 238 478 
Q 806 566 981 959 
Q 1194 1513 1194 2928 
L 1194 3500 
L 3559 3500 
L 3559 0 
L 2984 0 
L 2984 3041 
L 1769 3041 
L 1769 2694 
Q 1769 1344 1494 738 
Q 1200 91 238 0 
z
" transform="scale(0.015625)"/>
       <path id="DejaVuSans-43e" d="M 1959 3097 
Q 1497 3097 1228 2736 
Q 959 2375 959 1747 
Q 959 1119 1226 758 
Q 1494 397 1959 397 
Q 2419 397 2687 759 
Q 2956 1122 2956 1747 
Q 2956 2369 2687 2733 
Q 2419 3097 1959 3097 
z
M 1959 3584 
Q 2709 3584 3137 3096 
Q 3566 2609 3566 1747 
Q 3566 888 3137 398 
Q 2709 -91 1959 -91 
Q 1206 -91 779 398 
Q 353 888 353 1747 
Q 353 2609 779 3096 
Q 1206 3584 1959 3584 
z
" transform="scale(0.015625)"/>
       <path id="DejaVuSans-20" transform="scale(0.015625)"/>
       <path id="DejaVuSans-43f" d="M 3603 3500 
L 3603 0 
L 3025 0 
L 3025 3041 
L 1159 3041 
L 1159 0 
L 581 0 
L 581 3500 
L 3603 3500 
z
" transform="scale(0.015625)"/>
       <path id="DejaVuSans-442" d="M 188 3500 
L 3541 3500 
L 3541 3041 
L 2147 3041 
L 2147 0 
L 1581 0 
L 1581 3041 
L 188 3041 
L 188 3500 
z
" transform="scale(0.015625)"/>
       <path id="DejaVuSans-43a" d="M 581 3500 
L 1153 3500 
L 1153 1856 
L 2775 3500 
L 3481 3500 
L 2144 2147 
L 3653 0 
L 3009 0 
L 1769 1766 
L 1153 1141 
L 1153 0 
L 581 0 
L 581 3500 
z
" transform="scale(0.015625)"/>
       <path id="DejaVuSans-432" d="M 1156 1613 
L 1156 459 
L 1975 459 
Q 2369 459 2575 607 
Q 2781 756 2781 1038 
Q 2781 1319 2575 1466 
Q 2369 1613 1975 1613 
L 1156 1613 
z
M 1156 3041 
L 1156 2072 
L 1913 2072 
Q 2238 2072 2444 2201 
Q 2650 2331 2650 2563 
Q 2650 2794 2444 2917 
Q 2238 3041 1913 3041 
L 1156 3041 
z
M 581 3500 
L 1950 3500 
Q 2566 3500 2897 3275 
Q 3228 3050 3228 2634 
Q 3228 2313 3059 2123 
Q 2891 1934 2559 1888 
Q 2956 1813 3175 1575 
Q 3394 1338 3394 981 
Q 3394 513 3033 256 
Q 2672 0 2003 0 
L 581 0 
L 581 3500 
z
" transform="scale(0.015625)"/>
      </defs>
      <use xlink:href="#DejaVuSans-427"/>
      <use xlink:href="#DejaVuSans-438" transform="translate(68.554688 0)"/>
      <use xlink:href="#DejaVuSans-441" transform="translate(133.544922 0)"/>
      <use xlink:href="#DejaVuSans-43b" transform="translate(188.525391 0)"/>
      <use xlink:href="#DejaVuSans-43e" transform="translate(252.441406 0)"/>
      <use xlink:href="#DejaVuSans-20" transform="translate(313.623047 0)"/>
      <use xlink:href="#DejaVuSans-43f" transform="translate(345.410156 0)"/>
      <use xlink:href="#DejaVuSans-43e" transform="translate(410.791016 0)"/>
      <use xlink:href="#DejaVuSans-442" transform="translate(471.972656 0)"/>
      <use xlink:href="#DejaVuSans-43e" transform="translate(530.224609 0)"/>
      <use xlink:href="#DejaVuSans-43a" transform="translate(591.40625 0)"/>
      <use xlink:href="#DejaVuSans-43e" transform="translate(651.806641 0)"/>
      <use xlink:href="#DejaVuSans-432" transform="translate(712.988281 0)"/>
     </g>
    </g>
   </g>
   <g id="matplotlib.axis_2">
    <g id="ytick_1">
     <g id="line2d_17">
      <path d="M 38.27 442.26 
L 853.2 442.26 
" clip-path="url(#p9db5fbd0d0)" style="fill: none; stroke-dasharray: 2.96,1.28; stroke-dashoffset: 0; stroke: #b0b0b0; stroke-opacity: 0.5; stroke-width: 0.8"/>
     </g>
     <g id="line2d_18">
      <defs>
       <path id="mec28547287" d="M 0 0 
L -3.5 0 
" style="stroke: #000000; stroke-width: 0.8"/>
      </defs>
      <g>
       <use xlink:href="#mec28547287" x="38.27" y="442.26" style="stroke: #000000; stroke-width: 0.8"/>
      </g>
     </g>
     <g id="text_10">
      <!-- 1 -->
      <g transform="translate(24.9075 446.059219) scale(0.1 -0.1)">
       <use xlink:href="#DejaVuSans-31"/>
      </g>
     </g>
    </g>
    <g id="ytick_2">
     <g id="line2d_19">
      <path d="M 38.27 385.745714 
L 853.2 385.745714 
" clip-path="url(#p9db5fbd0d0)" style="fill: none; stroke-dasharray: 2.96,1.28; stroke-dashoffset: 0; stroke: #b0b0b0; stroke-opacity: 0.5; stroke-width: 0.8"/>
     </g>
     <g id="line2d_20">
      <g>
       <use xlink:href="#mec28547287" x="38.27" y="385.745714" style="stroke: #000000; stroke-width: 0.8"/>
      </g>
     </g>
     <g id="text_11">
      <!-- 2 -->
      <g transform="translate(24.9075 389.544933) scale(0.1 -0.1)">
       <use xlink:href="#DejaVuSans-32"/>
      </g>
     </g>
    </g>
    <g id="ytick_3">
     <g id="line2d_21">
      <path d="M 38.27 329.231429 
L 853.2 329.231429 
" clip-path="url(#p9db5fbd0d0)" style="fill: none; stroke-dasharray: 2.96,1.28; stroke-dashoffset: 0; stroke: #b0b0b0; stroke-opacity: 0.5; stroke-width: 0.8"/>
     </g>
     <g id="line2d_22">
      <g>
       <use xlink:href="#mec28547287" x="38.27" y="329.231429" style="stroke: #000000; stroke-width: 0.8"/>
      </g>
     </g>
     <g id="text_12">
      <!-- 3 -->
      <g transform="translate(24.9075 333.030647) scale(0.1 -0.1)">
       <use xlink:href="#DejaVuSans-33"/>
      </g>
     </g>
    </g>
    <g id="ytick_4">
     <g id="line2d_23">
      <path d="M 38.27 272.717143 
L 853.2 272.717143 
" clip-path="url(#p9db5fbd0d0)" style="fill: none; stroke-dasharray: 2.96,1.28; stroke-dashoffset: 0; stroke: #b0b0b0; stroke-opacity: 0.5; stroke-width: 0.8"/>
     </g>
     <g id="line2d_24">
      <g>
       <use xlink:href="#mec28547287" x="38.27" y="272.717143" style="stroke: #000000; stroke-width: 0.8"/>
      </g>
     </g>
     <g id="text_13">
      <!-- 4 -->
      <g transform="translate(24.9075 276.516362) scale(0.1 -0.1)">
       <use xlink:href="#DejaVuSans-34"/>
      </g>
     </g>
    </g>
    <g id="ytick_5">
     <g id="line2d_25">
      <path d="M 38.27 216.202857 
L 853.2 216.202857 
" clip-path="url(#p9db5fbd0d0)" style="fill: none; stroke-dasharray: 2.96,1.28; stroke-dashoffset: 0; stroke: #b0b0b0; stroke-opacity: 0.5; stroke-width: 0.8"/>
     </g>
     <g id="line2d_26">
      <g>
       <use xlink:href="#mec28547287" x="38.27" y="216.202857" style="stroke: #000000; stroke-width: 0.8"/>
      </g>
     </g>
     <g id="text_14">
      <!-- 5 -->
      <g transform="translate(24.9075 220.002076) scale(0.1 -0.1)">
       <use xlink:href="#DejaVuSans-35"/>
      </g>
     </g>
    </g>
    <g id="ytick_6">
     <g id="line2d_27">
      <path d="M 38.27 159.688571 
L 853.2 159.688571 
" clip-path="url(#p9db5fbd0d0)" style="fill: none; stroke-dasharray: 2.96,1.28; stroke-dashoffset: 0; stroke: #b0b0b0; stroke-opacity: 0.5; stroke-width: 0.8"/>
     </g>
     <g id="line2d_28">
      <g>
       <use xlink:href="#mec28547287" x="38.27" y="159.688571" style="stroke: #000000; stroke-width: 0.8"/>
      </g>
     </g>
     <g id="text_15">
      <!-- 6 -->
      <g transform="translate(24.9075 163.48779) scale(0.1 -0.1)">
       <use xlink:href="#DejaVuSans-36"/>
      </g>
     </g>
    </g>
    <g id="ytick_7">
     <g id="line2d_29">
      <path d="M 38.27 103.174286 
L 853.2 103.174286 
" clip-path="url(#p9db5fbd0d0)" style="fill: none; stroke-dasharray: 2.96,1.28; stroke-dashoffset: 0; stroke: #b0b0b0; stroke-opacity: 0.5; stroke-width: 0.8"/>
     </g>
     <g id="line2d_30">
      <g>
       <use xlink:href="#mec28547287" x="38.27" y="103.174286" style="stroke: #000000; stroke-width: 0.8"/>
      </g>
     </g>
     <g id="text_16">
      <!-- 7 -->
      <g transform="translate(24.9075 106.973504) scale(0.1 -0.1)">
       <use xlink:href="#DejaVuSans-37"/>
      </g>
     </g>
    </g>
    <g id="ytick_8">
     <g id="line2d_31">
      <path d="M 38.27 46.66 
L 853.2 46.66 
" clip-path="url(#p9db5fbd0d0)" style="fill: none; stroke-dasharray: 2.96,1.28; stroke-dashoffset: 0; stroke: #b0b0b0; stroke-opacity: 0.5; stroke-width: 0.8"/>
     </g>
     <g id="line2d_32">
      <g>
       <use xlink:href="#mec28547287" x="38.27" y="46.66" style="stroke: #000000; stroke-width: 0.8"/>
      </g>
     </g>
     <g id="text_17">
      <!-- 8 -->
      <g transform="translate(24.9075 50.459219) scale(0.1 -0.1)">
       <use xlink:href="#DejaVuSans-38"/>
      </g>
     </g>
    </g>
    <g id="text_18">
     <!-- Ускорение -->
     <g transform="translate(18.827813 272.181094) rotate(-90) scale(0.1 -0.1)">
      <defs>
       <path id="DejaVuSans-423" d="M 2047 566 
Q 1981 409 1881 291 
Q 1634 0 850 0 
L 609 0 
L 609 531 
L 806 531 
Q 1178 531 1322 616 
Q 1409 669 1466 800 
L 1606 1131 
L 109 4666 
L 788 4666 
L 1947 1928 
L 3113 4666 
L 3791 4666 
L 2047 566 
z
" transform="scale(0.015625)"/>
       <path id="DejaVuSans-440" d="M 1159 525 
L 1159 -1331 
L 581 -1331 
L 581 3500 
L 1159 3500 
L 1159 2969 
Q 1341 3281 1617 3432 
Q 1894 3584 2278 3584 
Q 2916 3584 3314 3078 
Q 3713 2572 3713 1747 
Q 3713 922 3314 415 
Q 2916 -91 2278 -91 
Q 1894 -91 1617 61 
Q 1341 213 1159 525 
z
M 3116 1747 
Q 3116 2381 2855 2742 
Q 2594 3103 2138 3103 
Q 1681 3103 1420 2742 
Q 1159 2381 1159 1747 
Q 1159 1113 1420 752 
Q 1681 391 2138 391 
Q 2594 391 2855 752 
Q 3116 1113 3116 1747 
z
" transform="scale(0.015625)"/>
       <path id="DejaVuSans-435" d="M 3597 1894 
L 3597 1613 
L 953 1613 
Q 991 1019 1311 708 
Q 1631 397 2203 397 
Q 2534 397 2845 478 
Q 3156 559 3463 722 
L 3463 178 
Q 3153 47 2828 -22 
Q 2503 -91 2169 -91 
Q 1331 -91 842 396 
Q 353 884 353 1716 
Q 353 2575 817 3079 
Q 1281 3584 2069 3584 
Q 2775 3584 3186 3129 
Q 3597 2675 3597 1894 
z
M 3022 2063 
Q 3016 2534 2758 2815 
Q 2500 3097 2075 3097 
Q 1594 3097 1305 2825 
Q 1016 2553 972 2059 
L 3022 2063 
z
" transform="scale(0.015625)"/>
       <path id="DejaVuSans-43d" d="M 581 3500 
L 1159 3500 
L 1159 2072 
L 3025 2072 
L 3025 3500 
L 3603 3500 
L 3603 0 
L 3025 0 
L 3025 1613 
L 1159 1613 
L 1159 0 
L 581 0 
L 581 3500 
z
" transform="scale(0.015625)"/>
      </defs>
      <use xlink:href="#DejaVuSans-423"/>
      <use xlink:href="#DejaVuSans-441" transform="translate(60.9375 0)"/>
      <use xlink:href="#DejaVuSans-43a" transform="translate(115.917969 0)"/>
      <use xlink:href="#DejaVuSans-43e" transform="translate(176.318359 0)"/>
      <use xlink:href="#DejaVuSans-440" transform="translate(237.5 0)"/>
      <use xlink:href="#DejaVuSans-435" transform="translate(300.976562 0)"/>
      <use xlink:href="#DejaVuSans-43d" transform="translate(362.5 0)"/>
      <use xlink:href="#DejaVuSans-438" transform="translate(427.880859 0)"/>
      <use xlink:href="#DejaVuSans-435" transform="translate(492.871094 0)"/>
     </g>
    </g>
   </g>
   <g id="line2d_33">
    <path d="M 75.312273 442.26 
L 181.147338 399.163793 
L 286.982403 390.724998 
L 392.817468 344.587209 
L 498.652532 328.264041 
L 604.487597 316.974529 
L 710.322662 300.532787 
L 816.157727 278.755683 
" clip-path="url(#p9db5fbd0d0)" style="fill: none; stroke: #1f77b4; stroke-width: 1.5; stroke-linecap: square"/>
    <defs>
     <path id="m9604655688" d="M 0 3 
C 0.795609 3 1.55874 2.683901 2.12132 2.12132 
C 2.683901 1.55874 3 0.795609 3 0 
C 3 -0.795609 2.683901 -1.55874 2.12132 -2.12132 
C 1.55874 -2.683901 0.795609 -3 0 -3 
C -0.795609 -3 -1.55874 -2.683901 -2.12132 -2.12132 
C -2.683901 -1.55874 -3 -0.795609 -3 0 
C -3 0.795609 -2.683901 1.55874 -2.12132 2.12132 
C -1.55874 2.683901 -0.795609 3 0 3 
z
" style="stroke: #1f77b4"/>
    </defs>
    <g clip-path="url(#p9db5fbd0d0)">
     <use xlink:href="#m9604655688" x="75.312273" y="442.26" style="fill: #1f77b4; stroke: #1f77b4"/>
     <use xlink:href="#m9604655688" x="181.147338" y="399.163793" style="fill: #1f77b4; stroke: #1f77b4"/>
     <use xlink:href="#m9604655688" x="286.982403" y="390.724998" style="fill: #1f77b4; stroke: #1f77b4"/>
     <use xlink:href="#m9604655688" x="392.817468" y="344.587209" style="fill: #1f77b4; stroke: #1f77b4"/>
     <use xlink:href="#m9604655688" x="498.652532" y="328.264041" style="fill: #1f77b4; stroke: #1f77b4"/>
     <use xlink:href="#m9604655688" x="604.487597" y="316.974529" style="fill: #1f77b4; stroke: #1f77b4"/>
     <use xlink:href="#m9604655688" x="710.322662" y="300.532787" style="fill: #1f77b4; stroke: #1f77b4"/>
     <use xlink:href="#m9604655688" x="816.157727" y="278.755683" style="fill: #1f77b4; stroke: #1f77b4"/>
    </g>
   </g>
   <g id="line2d_34">
    <path d="M 75.312273 442.26 
L 181.147338 415.10957 
L 286.982403 390.074294 
L 392.817468 346.868237 
L 498.652532 305.832205 
L 604.487597 299.789369 
L 710.322662 290.838205 
L 816.157727 270.875226 
" clip-path="url(#p9db5fbd0d0)" style="fill: none; stroke: #ff7f0e; stroke-width: 1.5; stroke-linecap: square"/>
    <defs>
     <path id="md37fe8b14b" d="M 0 3 
C 0.795609 3 1.55874 2.683901 2.12132 2.12132 
C 2.683901 1.55874 3 0.795609 3 0 
C 3 -0.795609 2.683901 -1.55874 2.12132 -2.12132 
C 1.55874 -2.683901 0.795609 -3 0 -3 
C -0.795609 -3 -1.55874 -2.683901 -2.12132 -2.12132 
C -2.683901 -1.55874 -3 -0.795609 -3 0 
C -3 0.795609 -2.683901 1.55874 -2.12132 2.12132 
C -1.55874 2.683901 -0.795609 3 0 3 
z
" style="stroke: #ff7f0e"/>
    </defs>
    <g clip-path="url(#p9db5fbd0d0)">
     <use xlink:href="#md37fe8b14b" x="75.312273" y="442.26" style="fill: #ff7f0e; stroke: #ff7f0e"/>
     <use xlink:href="#md37fe8b14b" x="181.147338" y="415.10957" style="fill: #ff7f0e; stroke: #ff7f0e"/>
     <use xlink:href="#md37fe8b14b" x="286.982403" y="390.074294" style="fill: #ff7f0e; stroke: #ff7f0e"/>
     <use xlink:href="#md37fe8b14b" x="392.817468" y="346.868237" style="fill: #ff7f0e; stroke: #ff7f0e"/>
     <use xlink:href="#md37fe8b14b" x="498.652532" y="305.832205" style="fill: #ff7f0e; stroke: #ff7f0e"/>
     <use xlink:href="#md37fe8b14b" x="604.487597" y="299.789369" style="fill: #ff7f0e; stroke: #ff7f0e"/>
     <use xlink:href="#md37fe8b14b" x="710.322662" y="290.838205" style="fill: #ff7f0e; stroke: #ff7f0e"/>
     <use xlink:href="#md37fe8b14b" x="816.157727" y="270.875226" style="fill: #ff7f0e; stroke: #ff7f0e"/>
    </g>
   </g>
   <g id="line2d_35">
    <path d="M 75.312273 442.26 
L 181.147338 402.875326 
L 286.982403 395.188286 
L 392.817468 356.727946 
L 498.652532 337.282021 
L 604.487597 285.37839 
L 710.322662 268.547535 
L 816.157727 267.658676 
" clip-path="url(#p9db5fbd0d0)" style="fill: none; stroke: #2ca02c; stroke-width: 1.5; stroke-linecap: square"/>
    <defs>
     <path id="m9acbdeb70d" d="M 0 3 
C 0.795609 3 1.55874 2.683901 2.12132 2.12132 
C 2.683901 1.55874 3 0.795609 3 0 
C 3 -0.795609 2.683901 -1.55874 2.12132 -2.12132 
C 1.55874 -2.683901 0.795609 -3 0 -3 
C -0.795609 -3 -1.55874 -2.683901 -2.12132 -2.12132 
C -2.683901 -1.55874 -3 -0.795609 -3 0 
C -3 0.795609 -2.683901 1.55874 -2.12132 2.12132 
C -1.55874 2.683901 -0.795609 3 0 3 
z
" style="stroke: #2ca02c"/>
    </defs>
    <g clip-path="url(#p9db5fbd0d0)">
     <use xlink:href="#m9acbdeb70d" x="75.312273" y="442.26" style="fill: #2ca02c; stroke: #2ca02c"/>
     <use xlink:href="#m9acbdeb70d" x="181.147338" y="402.875326" style="fill: #2ca02c; stroke: #2ca02c"/>
     <use xlink:href="#m9acbdeb70d" x="286.982403" y="395.188286" style="fill: #2ca02c; stroke: #2ca02c"/>
     <use xlink:href="#m9acbdeb70d" x="392.817468" y="356.727946" style="fill: #2ca02c; stroke: #2ca02c"/>
     <use xlink:href="#m9acbdeb70d" x="498.652532" y="337.282021" style="fill: #2ca02c; stroke: #2ca02c"/>
     <use xlink:href="#m9acbdeb70d" x="604.487597" y="285.37839" style="fill: #2ca02c; stroke: #2ca02c"/>
     <use xlink:href="#m9acbdeb70d" x="710.322662" y="268.547535" style="fill: #2ca02c; stroke: #2ca02c"/>
     <use xlink:href="#m9acbdeb70d" x="816.157727" y="267.658676" style="fill: #2ca02c; stroke: #2ca02c"/>
    </g>
   </g>
   <g id="line2d_36">
    <path d="M 75.312273 442.26 
L 181.147338 391.943048 
L 286.982403 383.963174 
L 392.817468 337.264202 
L 498.652532 323.629874 
L 604.487597 292.078234 
L 710.322662 284.84196 
L 816.157727 284.721425 
" clip-path="url(#p9db5fbd0d0)" style="fill: none; stroke: #d62728; stroke-width: 1.5; stroke-linecap: square"/>
    <defs>
     <path id="m918833d6b1" d="M 0 3 
C 0.795609 3 1.55874 2.683901 2.12132 2.12132 
C 2.683901 1.55874 3 0.795609 3 0 
C 3 -0.795609 2.683901 -1.55874 2.12132 -2.12132 
C 1.55874 -2.683901 0.795609 -3 0 -3 
C -0.795609 -3 -1.55874 -2.683901 -2.12132 -2.12132 
C -2.683901 -1.55874 -3 -0.795609 -3 0 
C -3 0.795609 -2.683901 1.55874 -2.12132 2.12132 
C -1.55874 2.683901 -0.795609 3 0 3 
z
" style="stroke: #d62728"/>
    </defs>
    <g clip-path="url(#p9db5fbd0d0)">
     <use xlink:href="#m918833d6b1" x="75.312273" y="442.26" style="fill: #d62728; stroke: #d62728"/>
     <use xlink:href="#m918833d6b1" x="181.147338" y="391.943048" style="fill: #d62728; stroke: #d62728"/>
     <use xlink:href="#m918833d6b1" x="286.982403" y="383.963174" style="fill: #d62728; stroke: #d62728"/>
     <use xlink:href="#m918833d6b1" x="392.817468" y="337.264202" style="fill: #d62728; stroke: #d62728"/>
     <use xlink:href="#m918833d6b1" x="498.652532" y="323.629874" style="fill: #d62728; stroke: #d62728"/>
     <use xlink:href="#m918833d6b1" x="604.487597" y="292.078234" style="fill: #d62728; stroke: #d62728"/>
     <use xlink:href="#m918833d6b1" x="710.322662" y="284.84196" style="fill: #d62728; stroke: #d62728"/>
     <use xlink:href="#m918833d6b1" x="816.157727" y="284.721425" style="fill: #d62728; stroke: #d62728"/>
    </g>
   </g>
   <g id="line2d_37">
    <path d="M 75.312273 442.26 
L 181.147338 412.892347 
L 286.982403 378.159166 
L 392.817468 340.932433 
L 498.652532 302.657551 
L 604.487597 299.117486 
L 710.322662 291.310419 
L 816.157727 257.591184 
" clip-path="url(#p9db5fbd0d0)" style="fill: none; stroke: #9467bd; stroke-width: 1.5; stroke-linecap: square"/>
    <defs>
     <path id="m9701a48cd7" d="M 0 3 
C 0.795609 3 1.55874 2.683901 2.12132 2.12132 
C 2.683901 1.55874 3 0.795609 3 0 
C 3 -0.795609 2.683901 -1.55874 2.12132 -2.12132 
C 1.55874 -2.683901 0.795609 -3 0 -3 
C -0.795609 -3 -1.55874 -2.683901 -2.12132 -2.12132 
C -2.683901 -1.55874 -3 -0.795609 -3 0 
C -3 0.795609 -2.683901 1.55874 -2.12132 2.12132 
C -1.55874 2.683901 -0.795609 3 0 3 
z
" style="stroke: #9467bd"/>
    </defs>
    <g clip-path="url(#p9db5fbd0d0)">
     <use xlink:href="#m9701a48cd7" x="75.312273" y="442.26" style="fill: #9467bd; stroke: #9467bd"/>
     <use xlink:href="#m9701a48cd7" x="181.147338" y="412.892347" style="fill: #9467bd; stroke: #9467bd"/>
     <use xlink:href="#m9701a48cd7" x="286.982403" y="378.159166" style="fill: #9467bd; stroke: #9467bd"/>
     <use xlink:href="#m9701a48cd7" x="392.817468" y="340.932433" style="fill: #9467bd; stroke: #9467bd"/>
     <use xlink:href="#m9701a48cd7" x="498.652532" y="302.657551" style="fill: #9467bd; stroke: #9467bd"/>
     <use xlink:href="#m9701a48cd7" x="604.487597" y="299.117486" style="fill: #9467bd; stroke: #9467bd"/>
     <use xlink:href="#m9701a48cd7" x="710.322662" y="291.310419" style="fill: #9467bd; stroke: #9467bd"/>
     <use xlink:href="#m9701a48cd7" x="816.157727" y="257.591184" style="fill: #9467bd; stroke: #9467bd"/>
    </g>
   </g>
   <g id="line2d_38">
    <path d="M 75.312273 442.26 
L 181.147338 413.077729 
L 286.982403 388.898089 
L 392.817468 351.248702 
L 498.652532 325.757742 
L 604.487597 271.401855 
L 710.322662 265.085296 
L 816.157727 267.491616 
" clip-path="url(#p9db5fbd0d0)" style="fill: none; stroke: #8c564b; stroke-width: 1.5; stroke-linecap: square"/>
    <defs>
     <path id="macaf079de1" d="M 0 3 
C 0.795609 3 1.55874 2.683901 2.12132 2.12132 
C 2.683901 1.55874 3 0.795609 3 0 
C 3 -0.795609 2.683901 -1.55874 2.12132 -2.12132 
C 1.55874 -2.683901 0.795609 -3 0 -3 
C -0.795609 -3 -1.55874 -2.683901 -2.12132 -2.12132 
C -2.683901 -1.55874 -3 -0.795609 -3 0 
C -3 0.795609 -2.683901 1.55874 -2.12132 2.12132 
C -1.55874 2.683901 -0.795609 3 0 3 
z
" style="stroke: #8c564b"/>
    </defs>
    <g clip-path="url(#p9db5fbd0d0)">
     <use xlink:href="#macaf079de1" x="75.312273" y="442.26" style="fill: #8c564b; stroke: #8c564b"/>
     <use xlink:href="#macaf079de1" x="181.147338" y="413.077729" style="fill: #8c564b; stroke: #8c564b"/>
     <use xlink:href="#macaf079de1" x="286.982403" y="388.898089" style="fill: #8c564b; stroke: #8c564b"/>
     <use xlink:href="#macaf079de1" x="392.817468" y="351.248702" style="fill: #8c564b; stroke: #8c564b"/>
     <use xlink:href="#macaf079de1" x="498.652532" y="325.757742" style="fill: #8c564b; stroke: #8c564b"/>
     <use xlink:href="#macaf079de1" x="604.487597" y="271.401855" style="fill: #8c564b; stroke: #8c564b"/>
     <use xlink:href="#macaf079de1" x="710.322662" y="265.085296" style="fill: #8c564b; stroke: #8c564b"/>
     <use xlink:href="#macaf079de1" x="816.157727" y="267.491616" style="fill: #8c564b; stroke: #8c564b"/>
    </g>
   </g>
   <g id="line2d_39">
    <path d="M 75.312273 442.26 
L 181.147338 399.714458 
L 286.982403 387.095259 
L 392.817468 339.079277 
L 498.652532 334.70199 
L 604.487597 311.048607 
L 710.322662 331.892676 
L 816.157727 299.768879 
" clip-path="url(#p9db5fbd0d0)" style="fill: none; stroke: #e377c2; stroke-width: 1.5; stroke-linecap: square"/>
    <defs>
     <path id="m1d3ee72928" d="M 0 3 
C 0.795609 3 1.55874 2.683901 2.12132 2.12132 
C 2.683901 1.55874 3 0.795609 3 0 
C 3 -0.795609 2.683901 -1.55874 2.12132 -2.12132 
C 1.55874 -2.683901 0.795609 -3 0 -3 
C -0.795609 -3 -1.55874 -2.683901 -2.12132 -2.12132 
C -2.683901 -1.55874 -3 -0.795609 -3 0 
C -3 0.795609 -2.683901 1.55874 -2.12132 2.12132 
C -1.55874 2.683901 -0.795609 3 0 3 
z
" style="stroke: #e377c2"/>
    </defs>
    <g clip-path="url(#p9db5fbd0d0)">
     <use xlink:href="#m1d3ee72928" x="75.312273" y="442.26" style="fill: #e377c2; stroke: #e377c2"/>
     <use xlink:href="#m1d3ee72928" x="181.147338" y="399.714458" style="fill: #e377c2; stroke: #e377c2"/>
     <use xlink:href="#m1d3ee72928" x="286.982403" y="387.095259" style="fill: #e377c2; stroke: #e377c2"/>
     <use xlink:href="#m1d3ee72928" x="392.817468" y="339.079277" style="fill: #e377c2; stroke: #e377c2"/>
     <use xlink:href="#m1d3ee72928" x="498.652532" y="334.70199" style="fill: #e377c2; stroke: #e377c2"/>
     <use xlink:href="#m1d3ee72928" x="604.487597" y="311.048607" style="fill: #e377c2; stroke: #e377c2"/>
     <use xlink:href="#m1d3ee72928" x="710.322662" y="331.892676" style="fill: #e377c2; stroke: #e377c2"/>
     <use xlink:href="#m1d3ee72928" x="816.157727" y="299.768879" style="fill: #e377c2; stroke: #e377c2"/>
    </g>
   </g>
   <g id="line2d_40">
    <path d="M 75.312273 442.26 
L 181.147338 410.279185 
L 286.982403 379.077351 
L 392.817468 354.763645 
L 498.652532 292.426352 
L 604.487597 276.386836 
L 710.322662 278.430802 
L 816.157727 283.638373 
" clip-path="url(#p9db5fbd0d0)" style="fill: none; stroke: #7f7f7f; stroke-width: 1.5; stroke-linecap: square"/>
    <defs>
     <path id="m9c5c7ce5db" d="M 0 3 
C 0.795609 3 1.55874 2.683901 2.12132 2.12132 
C 2.683901 1.55874 3 0.795609 3 0 
C 3 -0.795609 2.683901 -1.55874 2.12132 -2.12132 
C 1.55874 -2.683901 0.795609 -3 0 -3 
C -0.795609 -3 -1.55874 -2.683901 -2.12132 -2.12132 
C -2.683901 -1.55874 -3 -0.795609 -3 0 
C -3 0.795609 -2.683901 1.55874 -2.12132 2.12132 
C -1.55874 2.683901 -0.795609 3 0 3 
z
" style="stroke: #7f7f7f"/>
    </defs>
    <g clip-path="url(#p9db5fbd0d0)">
     <use xlink:href="#m9c5c7ce5db" x="75.312273" y="442.26" style="fill: #7f7f7f; stroke: #7f7f7f"/>
     <use xlink:href="#m9c5c7ce5db" x="181.147338" y="410.279185" style="fill: #7f7f7f; stroke: #7f7f7f"/>
     <use xlink:href="#m9c5c7ce5db" x="286.982403" y="379.077351" style="fill: #7f7f7f; stroke: #7f7f7f"/>
     <use xlink:href="#m9c5c7ce5db" x="392.817468" y="354.763645" style="fill: #7f7f7f; stroke: #7f7f7f"/>
     <use xlink:href="#m9c5c7ce5db" x="498.652532" y="292.426352" style="fill: #7f7f7f; stroke: #7f7f7f"/>
     <use xlink:href="#m9c5c7ce5db" x="604.487597" y="276.386836" style="fill: #7f7f7f; stroke: #7f7f7f"/>
     <use xlink:href="#m9c5c7ce5db" x="710.322662" y="278.430802" style="fill: #7f7f7f; stroke: #7f7f7f"/>
     <use xlink:href="#m9c5c7ce5db" x="816.157727" y="283.638373" style="fill: #7f7f7f; stroke: #7f7f7f"/>
    </g>
   </g>
   <g id="line2d_41">
    <path d="M 75.312273 442.26 
L 181.147338 410.339 
L 286.982403 385.36807 
L 392.817468 348.993164 
L 498.652532 324.984379 
L 604.487597 277.999974 
L 710.322662 277.142703 
L 816.157727 250.977593 
" clip-path="url(#p9db5fbd0d0)" style="fill: none; stroke: #bcbd22; stroke-width: 1.5; stroke-linecap: square"/>
    <defs>
     <path id="ma288fd0497" d="M 0 3 
C 0.795609 3 1.55874 2.683901 2.12132 2.12132 
C 2.683901 1.55874 3 0.795609 3 0 
C 3 -0.795609 2.683901 -1.55874 2.12132 -2.12132 
C 1.55874 -2.683901 0.795609 -3 0 -3 
C -0.795609 -3 -1.55874 -2.683901 -2.12132 -2.12132 
C -2.683901 -1.55874 -3 -0.795609 -3 0 
C -3 0.795609 -2.683901 1.55874 -2.12132 2.12132 
C -1.55874 2.683901 -0.795609 3 0 3 
z
" style="stroke: #bcbd22"/>
    </defs>
    <g clip-path="url(#p9db5fbd0d0)">
     <use xlink:href="#ma288fd0497" x="75.312273" y="442.26" style="fill: #bcbd22; stroke: #bcbd22"/>
     <use xlink:href="#ma288fd0497" x="181.147338" y="410.339" style="fill: #bcbd22; stroke: #bcbd22"/>
     <use xlink:href="#ma288fd0497" x="286.982403" y="385.36807" style="fill: #bcbd22; stroke: #bcbd22"/>
     <use xlink:href="#ma288fd0497" x="392.817468" y="348.993164" style="fill: #bcbd22; stroke: #bcbd22"/>
     <use xlink:href="#ma288fd0497" x="498.652532" y="324.984379" style="fill: #bcbd22; stroke: #bcbd22"/>
     <use xlink:href="#ma288fd0497" x="604.487597" y="277.999974" style="fill: #bcbd22; stroke: #bcbd22"/>
     <use xlink:href="#ma288fd0497" x="710.322662" y="277.142703" style="fill: #bcbd22; stroke: #bcbd22"/>
     <use xlink:href="#ma288fd0497" x="816.157727" y="250.977593" style="fill: #bcbd22; stroke: #bcbd22"/>
    </g>
   </g>
   <g id="line2d_42">
    <path d="M 75.312273 442.26 
L 181.147338 385.745714 
L 286.982403 329.231429 
L 392.817468 272.717143 
L 498.652532 216.202857 
L 604.487597 159.688571 
L 710.322662 103.174286 
L 816.157727 46.66 
" clip-path="url(#p9db5fbd0d0)" style="fill: none; stroke-dasharray: 5.55,2.4; stroke-dashoffset: 0; stroke: #000000; stroke-width: 1.5"/>
   </g>
   <g id="patch_3">
    <path d="M 38.27 462.04 
L 38.27 26.88 
" style="fill: none; stroke: #000000; stroke-width: 0.8; stroke-linejoin: miter; stroke-linecap: square"/>
   </g>
   <g id="patch_4">
    <path d="M 853.2 462.04 
L 853.2 26.88 
" style="fill: none; stroke: #000000; stroke-width: 0.8; stroke-linejoin: miter; stroke-linecap: square"/>
   </g>
   <g id="patch_5">
    <path d="M 38.27 462.04 
L 853.2 462.04 
" style="fill: none; stroke: #000000; stroke-width: 0.8; stroke-linejoin: miter; stroke-linecap: square"/>
   </g>
   <g id="patch_6">
    <path d="M 38.27 26.88 
L 853.2 26.88 
" style="fill: none; stroke: #000000; stroke-width: 0.8; stroke-linejoin: miter; stroke-linecap: square"/>
   </g>
   <g id="text_19">
    <!-- Ускорение для всех N -->
    <g transform="translate(376.58875 20.88) scale(0.12 -0.12)">
     <defs>
      <path id="DejaVuSans-434" d="M 1384 459 
L 3053 459 
L 3053 3041 
L 1844 3041 
L 1844 2603 
Q 1844 1316 1475 628 
L 1384 459 
z
M 550 459 
Q 834 584 959 850 
Q 1266 1509 1266 2838 
L 1266 3500 
L 3631 3500 
L 3631 459 
L 4091 459 
L 4091 -884 
L 3631 -884 
L 3631 0 
L 794 0 
L 794 -884 
L 334 -884 
L 334 459 
L 550 459 
z
" transform="scale(0.015625)"/>
      <path id="DejaVuSans-44f" d="M 1181 2491 
Q 1181 2231 1381 2084 
Q 1581 1938 1953 1938 
L 2728 1938 
L 2728 3041 
L 1953 3041 
Q 1581 3041 1381 2897 
Q 1181 2753 1181 2491 
z
M 363 0 
L 1431 1534 
Q 1069 1616 828 1830 
Q 588 2044 588 2491 
Q 588 2997 923 3248 
Q 1259 3500 1938 3500 
L 3306 3500 
L 3306 0 
L 2728 0 
L 2728 1478 
L 2013 1478 
L 981 0 
L 363 0 
z
" transform="scale(0.015625)"/>
      <path id="DejaVuSans-445" d="M 3513 3500 
L 2247 1797 
L 3578 0 
L 2900 0 
L 1881 1375 
L 863 0 
L 184 0 
L 1544 1831 
L 300 3500 
L 978 3500 
L 1906 2253 
L 2834 3500 
L 3513 3500 
z
" transform="scale(0.015625)"/>
      <path id="DejaVuSans-4e" d="M 628 4666 
L 1478 4666 
L 3547 763 
L 3547 4666 
L 4159 4666 
L 4159 0 
L 3309 0 
L 1241 3903 
L 1241 0 
L 628 0 
L 628 4666 
z
" transform="scale(0.015625)"/>
     </defs>
     <use xlink:href="#DejaVuSans-423"/>
     <use xlink:href="#DejaVuSans-441" transform="translate(60.9375 0)"/>
     <use xlink:href="#DejaVuSans-43a" transform="translate(115.917969 0)"/>
     <use xlink:href="#DejaVuSans-43e" transform="translate(176.318359 0)"/>
     <use xlink:href="#DejaVuSans-440" transform="translate(237.5 0)"/>
     <use xlink:href="#DejaVuSans-435" transform="translate(300.976562 0)"/>
     <use xlink:href="#DejaVuSans-43d" transform="translate(362.5 0)"/>
     <use xlink:href="#DejaVuSans-438" transform="translate(427.880859 0)"/>
     <use xlink:href="#DejaVuSans-435" transform="translate(492.871094 0)"/>
     <use xlink:href="#DejaVuSans-20" transform="translate(554.394531 0)"/>
     <use xlink:href="#DejaVuSans-434" transform="translate(586.181641 0)"/>
     <use xlink:href="#DejaVuSans-43b" transform="translate(655.322266 0)"/>
     <use xlink:href="#DejaVuSans-44f" transform="translate(719.238281 0)"/>
     <use xlink:href="#DejaVuSans-20" transform="translate(779.394531 0)"/>
     <use xlink:href="#DejaVuSans-432" transform="translate(811.181641 0)"/>
     <use xlink:href="#DejaVuSans-441" transform="translate(870.117188 0)"/>
     <use xlink:href="#DejaVuSans-435" transform="translate(925.097656 0)"/>
     <use xlink:href="#DejaVuSans-445" transform="translate(986.621094 0)"/>
     <use xlink:href="#DejaVuSans-20" transform="translate(1045.800781 0)"/>
     <use xlink:href="#DejaVuSans-4e" transform="translate(1077.587891 0)"/>
    </g>
   </g>
   <g id="legend_1">
    <g id="patch_7">
     <path d="M 44.101 155.812781 
L 189.748447 155.812781 
Q 191.414447 155.812781 191.414447 154.146781 
L 191.414447 32.711 
Q 191.414447 31.045 189.748447 31.045 
L 44.101 31.045 
Q 42.435 31.045 42.435 32.711 
L 42.435 154.146781 
Q 42.435 155.812781 44.101 155.812781 
z
" style="fill: #ffffff; opacity: 0.8; stroke: #cccccc; stroke-linejoin: miter"/>
    </g>
    <g id="line2d_43">
     <path d="M 45.767 37.790998 
L 54.097 37.790998 
L 62.427 37.790998 
" style="fill: none; stroke: #1f77b4; stroke-width: 1.5; stroke-linecap: square"/>
     <g>
      <use xlink:href="#m9604655688" x="54.097" y="37.790998" style="fill: #1f77b4; stroke: #1f77b4"/>
     </g>
    </g>
    <g id="text_20">
     <!-- TH=200 N=5000000 -->
     <g transform="translate(69.091 40.706498) scale(0.0833 -0.0833)">
      <defs>
       <path id="DejaVuSans-54" d="M -19 4666 
L 3928 4666 
L 3928 4134 
L 2272 4134 
L 2272 0 
L 1638 0 
L 1638 4134 
L -19 4134 
L -19 4666 
z
" transform="scale(0.015625)"/>
       <path id="DejaVuSans-48" d="M 628 4666 
L 1259 4666 
L 1259 2753 
L 3553 2753 
L 3553 4666 
L 4184 4666 
L 4184 0 
L 3553 0 
L 3553 2222 
L 1259 2222 
L 1259 0 
L 628 0 
L 628 4666 
z
" transform="scale(0.015625)"/>
       <path id="DejaVuSans-3d" d="M 678 2906 
L 4684 2906 
L 4684 2381 
L 678 2381 
L 678 2906 
z
M 678 1631 
L 4684 1631 
L 4684 1100 
L 678 1100 
L 678 1631 
z
" transform="scale(0.015625)"/>
       <path id="DejaVuSans-30" d="M 2034 4250 
Q 1547 4250 1301 3770 
Q 1056 3291 1056 2328 
Q 1056 1369 1301 889 
Q 1547 409 2034 409 
Q 2525 409 2770 889 
Q 3016 1369 3016 2328 
Q 3016 3291 2770 3770 
Q 2525 4250 2034 4250 
z
M 2034 4750 
Q 2819 4750 3233 4129 
Q 3647 3509 3647 2328 
Q 3647 1150 3233 529 
Q 2819 -91 2034 -91 
Q 1250 -91 836 529 
Q 422 1150 422 2328 
Q 422 3509 836 4129 
Q 1250 4750 2034 4750 
z
" transform="scale(0.015625)"/>
      </defs>
      <use xlink:href="#DejaVuSans-54"/>
      <use xlink:href="#DejaVuSans-48" transform="translate(61.083984 0)"/>
      <use xlink:href="#DejaVuSans-3d" transform="translate(136.279297 0)"/>
      <use xlink:href="#DejaVuSans-32" transform="translate(220.068359 0)"/>
      <use xlink:href="#DejaVuSans-30" transform="translate(283.691406 0)"/>
      <use xlink:href="#DejaVuSans-30" transform="translate(347.314453 0)"/>
      <use xlink:href="#DejaVuSans-20" transform="translate(410.9375 0)"/>
      <use xlink:href="#DejaVuSans-4e" transform="translate(442.724609 0)"/>
      <use xlink:href="#DejaVuSans-3d" transform="translate(517.529297 0)"/>
      <use xlink:href="#DejaVuSans-35" transform="translate(601.318359 0)"/>
      <use xlink:href="#DejaVuSans-30" transform="translate(664.941406 0)"/>
      <use xlink:href="#DejaVuSans-30" transform="translate(728.564453 0)"/>
      <use xlink:href="#DejaVuSans-30" transform="translate(792.1875 0)"/>
      <use xlink:href="#DejaVuSans-30" transform="translate(855.810547 0)"/>
      <use xlink:href="#DejaVuSans-30" transform="translate(919.433594 0)"/>
      <use xlink:href="#DejaVuSans-30" transform="translate(983.056641 0)"/>
     </g>
    </g>
    <g id="line2d_44">
     <path d="M 45.767 50.017877 
L 54.097 50.017877 
L 62.427 50.017877 
" style="fill: none; stroke: #ff7f0e; stroke-width: 1.5; stroke-linecap: square"/>
     <g>
      <use xlink:href="#md37fe8b14b" x="54.097" y="50.017877" style="fill: #ff7f0e; stroke: #ff7f0e"/>
     </g>
    </g>
    <g id="text_21">
     <!-- TH=200 N=10000000 -->
     <g transform="translate(69.091 52.933377) scale(0.0833 -0.0833)">
      <use xlink:href="#DejaVuSans-54"/>
      <use xlink:href="#DejaVuSans-48" transform="translate(61.083984 0)"/>
      <use xlink:href="#DejaVuSans-3d" transform="translate(136.279297 0)"/>
      <use xlink:href="#DejaVuSans-32" transform="translate(220.068359 0)"/>
      <use xlink:href="#DejaVuSans-30" transform="translate(283.691406 0)"/>
      <use xlink:href="#DejaVuSans-30" transform="translate(347.314453 0)"/>
      <use xlink:href="#DejaVuSans-20" transform="translate(410.9375 0)"/>
      <use xlink:href="#DejaVuSans-4e" transform="translate(442.724609 0)"/>
      <use xlink:href="#DejaVuSans-3d" transform="translate(517.529297 0)"/>
      <use xlink:href="#DejaVuSans-31" transform="translate(601.318359 0)"/>
      <use xlink:href="#DejaVuSans-30" transform="translate(664.941406 0)"/>
      <use xlink:href="#DejaVuSans-30" transform="translate(728.564453 0)"/>
      <use xlink:href="#DejaVuSans-30" transform="translate(792.1875 0)"/>
      <use xlink:href="#DejaVuSans-30" transform="translate(855.810547 0)"/>
      <use xlink:href="#DejaVuSans-30" transform="translate(919.433594 0)"/>
      <use xlink:href="#DejaVuSans-30" transform="translate(983.056641 0)"/>
      <use xlink:href="#DejaVuSans-30" transform="translate(1046.679688 0)"/>
     </g>
    </g>
    <g id="line2d_45">
     <path d="M 45.767 62.244755 
L 54.097 62.244755 
L 62.427 62.244755 
" style="fill: none; stroke: #2ca02c; stroke-width: 1.5; stroke-linecap: square"/>
     <g>
      <use xlink:href="#m9acbdeb70d" x="54.097" y="62.244755" style="fill: #2ca02c; stroke: #2ca02c"/>
     </g>
    </g>
    <g id="text_22">
     <!-- TH=200 N=100000000 -->
     <g transform="translate(69.091 65.160255) scale(0.0833 -0.0833)">
      <use xlink:href="#DejaVuSans-54"/>
      <use xlink:href="#DejaVuSans-48" transform="translate(61.083984 0)"/>
      <use xlink:href="#DejaVuSans-3d" transform="translate(136.279297 0)"/>
      <use xlink:href="#DejaVuSans-32" transform="translate(220.068359 0)"/>
      <use xlink:href="#DejaVuSans-30" transform="translate(283.691406 0)"/>
      <use xlink:href="#DejaVuSans-30" transform="translate(347.314453 0)"/>
      <use xlink:href="#DejaVuSans-20" transform="translate(410.9375 0)"/>
      <use xlink:href="#DejaVuSans-4e" transform="translate(442.724609 0)"/>
      <use xlink:href="#DejaVuSans-3d" transform="translate(517.529297 0)"/>
      <use xlink:href="#DejaVuSans-31" transform="translate(601.318359 0)"/>
      <use xlink:href="#DejaVuSans-30" transform="translate(664.941406 0)"/>
      <use xlink:href="#DejaVuSans-30" transform="translate(728.564453 0)"/>
      <use xlink:href="#DejaVuSans-30" transform="translate(792.1875 0)"/>
      <use xlink:href="#DejaVuSans-30" transform="translate(855.810547 0)"/>
      <use xlink:href="#DejaVuSans-30" transform="translate(919.433594 0)"/>
      <use xlink:href="#DejaVuSans-30" transform="translate(983.056641 0)"/>
      <use xlink:href="#DejaVuSans-30" transform="translate(1046.679688 0)"/>
      <use xlink:href="#DejaVuSans-30" transform="translate(1110.302734 0)"/>
     </g>
    </g>
    <g id="line2d_46">
     <path d="M 45.767 74.471633 
L 54.097 74.471633 
L 62.427 74.471633 
" style="fill: none; stroke: #d62728; stroke-width: 1.5; stroke-linecap: square"/>
     <g>
      <use xlink:href="#m918833d6b1" x="54.097" y="74.471633" style="fill: #d62728; stroke: #d62728"/>
     </g>
    </g>
    <g id="text_23">
     <!-- TH=1000 N=5000000 -->
     <g transform="translate(69.091 77.387133) scale(0.0833 -0.0833)">
      <use xlink:href="#DejaVuSans-54"/>
      <use xlink:href="#DejaVuSans-48" transform="translate(61.083984 0)"/>
      <use xlink:href="#DejaVuSans-3d" transform="translate(136.279297 0)"/>
      <use xlink:href="#DejaVuSans-31" transform="translate(220.068359 0)"/>
      <use xlink:href="#DejaVuSans-30" transform="translate(283.691406 0)"/>
      <use xlink:href="#DejaVuSans-30" transform="translate(347.314453 0)"/>
      <use xlink:href="#DejaVuSans-30" transform="translate(410.9375 0)"/>
      <use xlink:href="#DejaVuSans-20" transform="translate(474.560547 0)"/>
      <use xlink:href="#DejaVuSans-4e" transform="translate(506.347656 0)"/>
      <use xlink:href="#DejaVuSans-3d" transform="translate(581.152344 0)"/>
      <use xlink:href="#DejaVuSans-35" transform="translate(664.941406 0)"/>
      <use xlink:href="#DejaVuSans-30" transform="translate(728.564453 0)"/>
      <use xlink:href="#DejaVuSans-30" transform="translate(792.1875 0)"/>
      <use xlink:href="#DejaVuSans-30" transform="translate(855.810547 0)"/>
      <use xlink:href="#DejaVuSans-30" transform="translate(919.433594 0)"/>
      <use xlink:href="#DejaVuSans-30" transform="translate(983.056641 0)"/>
      <use xlink:href="#DejaVuSans-30" transform="translate(1046.679688 0)"/>
     </g>
    </g>
    <g id="line2d_47">
     <path d="M 45.767 86.698511 
L 54.097 86.698511 
L 62.427 86.698511 
" style="fill: none; stroke: #9467bd; stroke-width: 1.5; stroke-linecap: square"/>
     <g>
      <use xlink:href="#m9701a48cd7" x="54.097" y="86.698511" style="fill: #9467bd; stroke: #9467bd"/>
     </g>
    </g>
    <g id="text_24">
     <!-- TH=1000 N=10000000 -->
     <g transform="translate(69.091 89.614011) scale(0.0833 -0.0833)">
      <use xlink:href="#DejaVuSans-54"/>
      <use xlink:href="#DejaVuSans-48" transform="translate(61.083984 0)"/>
      <use xlink:href="#DejaVuSans-3d" transform="translate(136.279297 0)"/>
      <use xlink:href="#DejaVuSans-31" transform="translate(220.068359 0)"/>
      <use xlink:href="#DejaVuSans-30" transform="translate(283.691406 0)"/>
      <use xlink:href="#DejaVuSans-30" transform="translate(347.314453 0)"/>
      <use xlink:href="#DejaVuSans-30" transform="translate(410.9375 0)"/>
      <use xlink:href="#DejaVuSans-20" transform="translate(474.560547 0)"/>
      <use xlink:href="#DejaVuSans-4e" transform="translate(506.347656 0)"/>
      <use xlink:href="#DejaVuSans-3d" transform="translate(581.152344 0)"/>
      <use xlink:href="#DejaVuSans-31" transform="translate(664.941406 0)"/>
      <use xlink:href="#DejaVuSans-30" transform="translate(728.564453 0)"/>
      <use xlink:href="#DejaVuSans-30" transform="translate(792.1875 0)"/>
      <use xlink:href="#DejaVuSans-30" transform="translate(855.810547 0)"/>
      <use xlink:href="#DejaVuSans-30" transform="translate(919.433594 0)"/>
      <use xlink:href="#DejaVuSans-30" transform="translate(983.056641 0)"/>
      <use xlink:href="#DejaVuSans-30" transform="translate(1046.679688 0)"/>
      <use xlink:href="#DejaVuSans-30" transform="translate(1110.302734 0)"/>
     </g>
    </g>
    <g id="line2d_48">
     <path d="M 45.767 98.925389 
L 54.097 98.925389 
L 62.427 98.925389 
" style="fill: none; stroke: #8c564b; stroke-width: 1.5; stroke-linecap: square"/>
     <g>
      <use xlink:href="#macaf079de1" x="54.097" y="98.925389" style="fill: #8c564b; stroke: #8c564b"/>
     </g>
    </g>
    <g id="text_25">
     <!-- TH=1000 N=100000000 -->
     <g transform="translate(69.091 101.840889) scale(0.0833 -0.0833)">
      <use xlink:href="#DejaVuSans-54"/>
      <use xlink:href="#DejaVuSans-48" transform="translate(61.083984 0)"/>
      <use xlink:href="#DejaVuSans-3d" transform="translate(136.279297 0)"/>
      <use xlink:href="#DejaVuSans-31" transform="translate(220.068359 0)"/>
      <use xlink:href="#DejaVuSans-30" transform="translate(283.691406 0)"/>
      <use xlink:href="#DejaVuSans-30" transform="translate(347.314453 0)"/>
      <use xlink:href="#DejaVuSans-30" transform="translate(410.9375 0)"/>
      <use xlink:href="#DejaVuSans-20" transform="translate(474.560547 0)"/>
      <use xlink:href="#DejaVuSans-4e" transform="translate(506.347656 0)"/>
      <use xlink:href="#DejaVuSans-3d" transform="translate(581.152344 0)"/>
      <use xlink:href="#DejaVuSans-31" transform="translate(664.941406 0)"/>
      <use xlink:href="#DejaVuSans-30" transform="translate(728.564453 0)"/>
      <use xlink:href="#DejaVuSans-30" transform="translate(792.1875 0)"/>
      <use xlink:href="#DejaVuSans-30" transform="translate(855.810547 0)"/>
      <use xlink:href="#DejaVuSans-30" transform="translate(919.433594 0)"/>
      <use xlink:href="#DejaVuSans-30" transform="translate(983.056641 0)"/>
      <use xlink:href="#DejaVuSans-30" transform="translate(1046.679688 0)"/>
      <use xlink:href="#DejaVuSans-30" transform="translate(1110.302734 0)"/>
      <use xlink:href="#DejaVuSans-30" transform="translate(1173.925781 0)"/>
     </g>
    </g>
    <g id="line2d_49">
     <path d="M 45.767 111.152267 
L 54.097 111.152267 
L 62.427 111.152267 
" style="fill: none; stroke: #e377c2; stroke-width: 1.5; stroke-linecap: square"/>
     <g>
      <use xlink:href="#m1d3ee72928" x="54.097" y="111.152267" style="fill: #e377c2; stroke: #e377c2"/>
     </g>
    </g>
    <g id="text_26">
     <!-- TH=1000000 N=5000000 -->
     <g transform="translate(69.091 114.067767) scale(0.0833 -0.0833)">
      <use xlink:href="#DejaVuSans-54"/>
      <use xlink:href="#DejaVuSans-48" transform="translate(61.083984 0)"/>
      <use xlink:href="#DejaVuSans-3d" transform="translate(136.279297 0)"/>
      <use xlink:href="#DejaVuSans-31" transform="translate(220.068359 0)"/>
      <use xlink:href="#DejaVuSans-30" transform="translate(283.691406 0)"/>
      <use xlink:href="#DejaVuSans-30" transform="translate(347.314453 0)"/>
      <use xlink:href="#DejaVuSans-30" transform="translate(410.9375 0)"/>
      <use xlink:href="#DejaVuSans-30" transform="translate(474.560547 0)"/>
      <use xlink:href="#DejaVuSans-30" transform="translate(538.183594 0)"/>
      <use xlink:href="#DejaVuSans-30" transform="translate(601.806641 0)"/>
      <use xlink:href="#DejaVuSans-20" transform="translate(665.429688 0)"/>
      <use xlink:href="#DejaVuSans-4e" transform="translate(697.216797 0)"/>
      <use xlink:href="#DejaVuSans-3d" transform="translate(772.021484 0)"/>
      <use xlink:href="#DejaVuSans-35" transform="translate(855.810547 0)"/>
      <use xlink:href="#DejaVuSans-30" transform="translate(919.433594 0)"/>
      <use xlink:href="#DejaVuSans-30" transform="translate(983.056641 0)"/>
      <use xlink:href="#DejaVuSans-30" transform="translate(1046.679688 0)"/>
      <use xlink:href="#DejaVuSans-30" transform="translate(1110.302734 0)"/>
      <use xlink:href="#DejaVuSans-30" transform="translate(1173.925781 0)"/>
      <use xlink:href="#DejaVuSans-30" transform="translate(1237.548828 0)"/>
     </g>
    </g>
    <g id="line2d_50">
     <path d="M 45.767 123.379145 
L 54.097 123.379145 
L 62.427 123.379145 
" style="fill: none; stroke: #7f7f7f; stroke-width: 1.5; stroke-linecap: square"/>
     <g>
      <use xlink:href="#m9c5c7ce5db" x="54.097" y="123.379145" style="fill: #7f7f7f; stroke: #7f7f7f"/>
     </g>
    </g>
    <g id="text_27">
     <!-- TH=1000000 N=10000000 -->
     <g transform="translate(69.091 126.294645) scale(0.0833 -0.0833)">
      <use xlink:href="#DejaVuSans-54"/>
      <use xlink:href="#DejaVuSans-48" transform="translate(61.083984 0)"/>
      <use xlink:href="#DejaVuSans-3d" transform="translate(136.279297 0)"/>
      <use xlink:href="#DejaVuSans-31" transform="translate(220.068359 0)"/>
      <use xlink:href="#DejaVuSans-30" transform="translate(283.691406 0)"/>
      <use xlink:href="#DejaVuSans-30" transform="translate(347.314453 0)"/>
      <use xlink:href="#DejaVuSans-30" transform="translate(410.9375 0)"/>
      <use xlink:href="#DejaVuSans-30" transform="translate(474.560547 0)"/>
      <use xlink:href="#DejaVuSans-30" transform="translate(538.183594 0)"/>
      <use xlink:href="#DejaVuSans-30" transform="translate(601.806641 0)"/>
      <use xlink:href="#DejaVuSans-20" transform="translate(665.429688 0)"/>
      <use xlink:href="#DejaVuSans-4e" transform="translate(697.216797 0)"/>
      <use xlink:href="#DejaVuSans-3d" transform="translate(772.021484 0)"/>
      <use xlink:href="#DejaVuSans-31" transform="translate(855.810547 0)"/>
      <use xlink:href="#DejaVuSans-30" transform="translate(919.433594 0)"/>
      <use xlink:href="#DejaVuSans-30" transform="translate(983.056641 0)"/>
      <use xlink:href="#DejaVuSans-30" transform="translate(1046.679688 0)"/>
      <use xlink:href="#DejaVuSans-30" transform="translate(1110.302734 0)"/>
      <use xlink:href="#DejaVuSans-30" transform="translate(1173.925781 0)"/>
      <use xlink:href="#DejaVuSans-30" transform="translate(1237.548828 0)"/>
      <use xlink:href="#DejaVuSans-30" transform="translate(1301.171875 0)"/>
     </g>
    </g>
    <g id="line2d_51">
     <path d="M 45.767 135.606023 
L 54.097 135.606023 
L 62.427 135.606023 
" style="fill: none; stroke: #bcbd22; stroke-width: 1.5; stroke-linecap: square"/>
     <g>
      <use xlink:href="#ma288fd0497" x="54.097" y="135.606023" style="fill: #bcbd22; stroke: #bcbd22"/>
     </g>
    </g>
    <g id="text_28">
     <!-- TH=1000000 N=100000000 -->
     <g transform="translate(69.091 138.521523) scale(0.0833 -0.0833)">
      <use xlink:href="#DejaVuSans-54"/>
      <use xlink:href="#DejaVuSans-48" transform="translate(61.083984 0)"/>
      <use xlink:href="#DejaVuSans-3d" transform="translate(136.279297 0)"/>
      <use xlink:href="#DejaVuSans-31" transform="translate(220.068359 0)"/>
      <use xlink:href="#DejaVuSans-30" transform="translate(283.691406 0)"/>
      <use xlink:href="#DejaVuSans-30" transform="translate(347.314453 0)"/>
      <use xlink:href="#DejaVuSans-30" transform="translate(410.9375 0)"/>
      <use xlink:href="#DejaVuSans-30" transform="translate(474.560547 0)"/>
      <use xlink:href="#DejaVuSans-30" transform="translate(538.183594 0)"/>
      <use xlink:href="#DejaVuSans-30" transform="translate(601.806641 0)"/>
      <use xlink:href="#DejaVuSans-20" transform="translate(665.429688 0)"/>
      <use xlink:href="#DejaVuSans-4e" transform="translate(697.216797 0)"/>
      <use xlink:href="#DejaVuSans-3d" transform="translate(772.021484 0)"/>
      <use xlink:href="#DejaVuSans-31" transform="translate(855.810547 0)"/>
      <use xlink:href="#DejaVuSans-30" transform="translate(919.433594 0)"/>
      <use xlink:href="#DejaVuSans-30" transform="translate(983.056641 0)"/>
      <use xlink:href="#DejaVuSans-30" transform="translate(1046.679688 0)"/>
      <use xlink:href="#DejaVuSans-30" transform="translate(1110.302734 0)"/>
      <use xlink:href="#DejaVuSans-30" transform="translate(1173.925781 0)"/>
      <use xlink:href="#DejaVuSans-30" transform="translate(1237.548828 0)"/>
      <use xlink:href="#DejaVuSans-30" transform="translate(1301.171875 0)"/>
      <use xlink:href="#DejaVuSans-30" transform="translate(1364.794922 0)"/>
     </g>
    </g>
    <g id="line2d_52">
     <path d="M 45.767 147.832902 
L 54.097 147.832902 
L 62.427 147.832902 
" style="fill: none; stroke-dasharray: 5.55,2.4; stroke-dashoffset: 0; stroke: #000000; stroke-width: 1.5"/>
    </g>
    <g id="text_29">
     <!-- Линейное ускорение -->
     <g transform="translate(69.091 150.748402) scale(0.0833 -0.0833)">
      <defs>
       <path id="DejaVuSans-41b" d="M 263 0 
L 263 531 
Q 941 678 1134 1191 
Q 1406 1997 1406 3872 
L 1406 4666 
L 4181 4666 
L 4181 0 
L 3550 0 
L 3550 4134 
L 2034 4134 
L 2034 3559 
Q 2034 1791 1716 966 
Q 1409 175 263 0 
z
" transform="scale(0.015625)"/>
       <path id="DejaVuSans-439" d="M 3578 3500 
L 3578 0 
L 3006 0 
L 3006 2809 
L 1319 0 
L 581 0 
L 581 3500 
L 1153 3500 
L 1153 697 
L 2838 3500 
L 3578 3500 
z
M 1102 4833 
L 1471 4833 
Q 1505 4599 1656 4481 
Q 1808 4364 2080 4364 
Q 2349 4364 2499 4480 
Q 2649 4596 2689 4833 
L 3058 4833 
Q 3027 4386 2780 4161 
Q 2533 3936 2080 3936 
Q 1627 3936 1380 4161 
Q 1133 4386 1102 4833 
z
" transform="scale(0.015625)"/>
       <path id="DejaVuSans-443" d="M 2059 -325 
Q 1816 -950 1584 -1140 
Q 1353 -1331 966 -1331 
L 506 -1331 
L 506 -850 
L 844 -850 
Q 1081 -850 1212 -737 
Q 1344 -625 1503 -206 
L 1606 56 
L 191 3500 
L 800 3500 
L 1894 763 
L 2988 3500 
L 3597 3500 
L 2059 -325 
z
" transform="scale(0.015625)"/>
      </defs>
      <use xlink:href="#DejaVuSans-41b"/>
      <use xlink:href="#DejaVuSans-438" transform="translate(75.195312 0)"/>
      <use xlink:href="#DejaVuSans-43d" transform="translate(140.185547 0)"/>
      <use xlink:href="#DejaVuSans-435" transform="translate(205.566406 0)"/>
      <use xlink:href="#DejaVuSans-439" transform="translate(267.089844 0)"/>
      <use xlink:href="#DejaVuSans-43d" transform="translate(332.080078 0)"/>
      <use xlink:href="#DejaVuSans-43e" transform="translate(397.460938 0)"/>
      <use xlink:href="#DejaVuSans-435" transform="translate(458.642578 0)"/>
      <use xlink:href="#DejaVuSans-20" transform="translate(520.166016 0)"/>
      <use xlink:href="#DejaVuSans-443" transform="translate(551.953125 0)"/>
      <use xlink:href="#DejaVuSans-441" transform="translate(611.132812 0)"/>
      <use xlink:href="#DejaVuSans-43a" transform="translate(666.113281 0)"/>
      <use xlink:href="#DejaVuSans-43e" transform="translate(726.513672 0)"/>
      <use xlink:href="#DejaVuSans-440" transform="translate(787.695312 0)"/>
      <use xlink:href="#DejaVuSans-435" transform="translate(851.171875 0)"/>
      <use xlink:href="#DejaVuSans-43d" transform="translate(912.695312 0)"/>
      <use xlink:href="#DejaVuSans-438" transform="translate(978.076172 0)"/>
      <use xlink:href="#DejaVuSans-435" transform="translate(1043.066406 0)"/>
     </g>
    </g>
   </g>
  </g>
 </g>
 <defs>
  <clipPath id="p9db5fbd0d0">
   <rect x="38.27" y="26.88" width="814.93" height="435.16"/>
  </clipPath>
 </defs>
</svg>
